<?xml version="1.0" standalone="no"?>
<!DOCTYPE svg PUBLIC "-//W3C//DTD SVG 20010904//EN" "http://www.w3.org/TR/2001/REC-SVG-20010904/DTD/svg10.dtd">
<!-- Created using Krita: https://krita.org -->
<svg xmlns="http://www.w3.org/2000/svg" 
    xmlns:xlink="http://www.w3.org/1999/xlink"
    xmlns:krita="http://krita.org/namespaces/svg/krita"
    xmlns:sodipodi="http://sodipodi.sourceforge.net/DTD/sodipodi-0.dtd"
    width="416.88pt"
    height="271.44pt"
    viewBox="0 0 416.88 271.44">
<defs/>
<path id="shape0" transform="matrix(1 0 0 1.04831673961596 33.3589898206952 0.517327982355397)" fill="none" stroke="#006dc3" stroke-width="3.0312" stroke-linecap="square" stroke-linejoin="bevel" d="M10.5471 0C18.0951 11.6572 24.6241 25.9244 26.0082 40.8717C31.7156 102.512 12.6207 129.57 2.05869 199.229C-4.23374 226.121 5.02964 253.079 14.6094 264.002" sodipodi:nodetypes="cccc"/><path id="shape1" transform="matrix(1 0 0 1.04831673961596 23.7815767041118 0.0685290308147443)" fill="none" stroke="#006dc3" stroke-width="3.0312" stroke-linecap="square" stroke-linejoin="bevel" d="M28.2492 15.5981C26.1918 12.5696 20.5219 7.60608 20.0033 7.24917C15.7482 4.32069 1.07344 -5.55708 0.0857917 4.22062C-2.02013 25.0692 35.3431 23.0334 35.3431 39.2535" sodipodi:nodetypes="cccc"/><path id="shape2" transform="matrix(1 0 0 1.04831673961596 56.7599999999975 -6.38719715426694)" fill="none" stroke="#006dc3" stroke-width="3.0312" stroke-linecap="square" stroke-linejoin="bevel" d="M0 31.8788C0.0909474 27.2168 0.738545 17.1467 0.848842 14.4169C0.569367 11.3316 4.52557 -2.74193 9.24632 0.474633C19.9425 2.25052 8.98226 32.1459 7.06358 36.8172C6.56592 39.2358 5.11113 41.9519 2.91032 47.3762" sodipodi:nodetypes="ccccc"/><path id="shape3" transform="matrix(1 0 0 1.04831673961596 32.8732714572046 33.9787607438917)" fill="none" stroke="#006dc3" stroke-width="3.0312" stroke-linecap="square" stroke-linejoin="bevel" d="M26.9183 17.9836C23.329 -0.644362 -6.44334 -7.47117 1.27115 10.4805C5.36804 18.6686 15.6517 17.9403 26.4939 39.3472" sodipodi:nodetypes="ccc"/><path id="shape4" transform="matrix(1 0 0 1.04831673961596 39.045762536449 70.0870946313416)" fill="none" stroke="#006dc3" stroke-width="3.0312" stroke-linecap="square" stroke-linejoin="bevel" d="M17.0776 38.2989C16.0708 27.2047 16.931 18.8854 15.5618 10.2507C14.1694 -2.33521 1.74987 -2.17953 0.13108 4.52106C-0.910756 15.4793 4.34003 24.4949 12.9547 52.7595" sodipodi:nodetypes="cccc"/><path id="shape5" transform="matrix(1 0 0 1.04831673961596 26.3654666258039 129.374109368227)" fill="none" stroke="#006dc3" stroke-width="3.0312" stroke-linecap="square" stroke-linejoin="bevel" d="M19.0867 23.9531C18.2076 20.6875 13.5396 -5.54175 6.20254 1.06164C-9.16419 14.8917 8.46236 34.3609 11.6897 59.9955" sodipodi:nodetypes="ccc"/><path id="shape6" transform="matrix(1 0 0 1.04831673961596 12.998850588095 184.956702520529)" fill="none" stroke="#006dc3" stroke-width="3.0312" stroke-linecap="square" stroke-linejoin="bevel" d="M22.631 22.4722C21.3021 8.26899 7.6336 -5.64978 2.10724 2.33643C-6.38525 18.8968 13.0574 26.9574 20.2967 48.1193" sodipodi:nodetypes="ccc"/><path id="shape7" transform="matrix(1 0 0 1.04831673961596 13.3673432826954 239.039034066739)" fill="none" stroke="#006dc3" stroke-width="3.0312" stroke-linecap="square" stroke-linejoin="bevel" d="M23.5055 15.6013C5.43616 -17.1958 -18.173 8.41766 22.1413 31.2625C24.0248 32.3298 34.3466 38.8785 34.6011 36.4737" sodipodi:nodetypes="ccc"/><path id="shape8" transform="matrix(1 0 0 1.04831673961596 57.1237894736817 56.0505606214295)" fill="none" stroke="#006dc3" stroke-width="3.0312" stroke-linecap="square" stroke-linejoin="bevel" d="M4.09263 17.4741C3.87412 17.7691 16.6304 -4.74566 20.4025 0.912602C30.4897 16.0433 6.82105 32.2365 0 47.6777" sodipodi:nodetypes="ccc"/><path id="shape9" transform="matrix(1 0 0 1.04831673961596 48.9688421052607 105.373668419036)" fill="none" stroke="#006dc3" stroke-width="3.0312" stroke-linecap="square" stroke-linejoin="bevel" d="M7.24547 9.93184C9.35709 6.44767 14.053 2.27573 17.7347 0.491502C21.3464 -1.25876 22.8884 2.00777 22.8884 4.91154C22.8884 18.4283 9.12767 30.0107 0 38.2256" sodipodi:nodetypes="cccc"/><path id="shape10" transform="matrix(1 0 0 1.04831673961596 38.3886315789449 148.938751978984)" fill="none" stroke="#006dc3" stroke-width="3.0312" stroke-linecap="square" stroke-linejoin="bevel" d="M6.88168 11.7565C43.9386 -24.6993 36.1336 34.6132 0 41.7692" sodipodi:nodetypes="cc"/><path id="shape11" transform="matrix(1 0 0 1.04831673961596 34.8416842105239 197.691503668085)" fill="none" stroke="#006dc3" stroke-width="3.0312" stroke-linecap="square" stroke-linejoin="bevel" d="M0.939789 10.1606C2.03309 4.88298 10.0622 -2.16955 14.4606 0.638433C28.9241 10.3283 0 37.409 0 43.8566" sodipodi:nodetypes="ccc"/><path id="shape12" transform="matrix(1 0 0 1.04831673961596 38.0551578947344 238.541765998293)" fill="none" stroke="#006dc3" stroke-width="3.0312" stroke-linecap="square" stroke-linejoin="bevel" d="M0 15.4754C0.260515 10.3954 3.30908 3.79147 8.33684 1.20576C19.9651 -4.7745 16.5221 12.977 13.0055 21.8599C13.0055 23.1267 9.83761 29.9633 9.42821 36.5661" sodipodi:nodetypes="cccc"/><path id="shape13" transform="matrix(-1 0 0 1.04831673961596 383.521010179304 0.517327982355397)" fill="none" stroke="#006dc3" stroke-width="3.0312" stroke-linecap="square" stroke-linejoin="bevel" d="M10.5471 0C18.0951 11.6572 24.6241 25.9244 26.0082 40.8717C31.7156 102.512 12.6207 129.57 2.05869 199.229C-4.23374 226.121 5.02964 253.079 14.6094 264.002" sodipodi:nodetypes="cccc"/><path id="shape14" transform="matrix(-1 0 0 1.04831673961596 393.098423295889 0.0685290308147443)" fill="none" stroke="#006dc3" stroke-width="3.0312" stroke-linecap="square" stroke-linejoin="bevel" d="M28.2492 15.5981C26.1918 12.5696 20.5219 7.60608 20.0033 7.24917C15.7482 4.32069 1.07344 -5.55708 0.0857917 4.22062C-2.02013 25.0692 35.3431 23.0334 35.3431 39.2535" sodipodi:nodetypes="cccc"/><path id="shape15" transform="matrix(-1 0 0 1.04831673961596 360.120000000002 -6.38719715426694)" fill="none" stroke="#006dc3" stroke-width="3.0312" stroke-linecap="square" stroke-linejoin="bevel" d="M0 31.8788C0.0909474 27.2168 0.738545 17.1467 0.848842 14.4169C0.569367 11.3316 4.52557 -2.74193 9.24632 0.474633C19.9425 2.25052 8.98226 32.1459 7.06358 36.8172C6.56592 39.2358 5.11113 41.9519 2.91032 47.3762" sodipodi:nodetypes="ccccc"/><path id="shape16" transform="matrix(-1 0 0 1.04831673961596 384.006728542795 33.9787607438917)" fill="none" stroke="#006dc3" stroke-width="3.0312" stroke-linecap="square" stroke-linejoin="bevel" d="M26.9183 17.9836C23.329 -0.644362 -6.44334 -7.47117 1.27115 10.4805C5.36804 18.6686 15.6517 17.9403 26.4939 39.3472" sodipodi:nodetypes="ccc"/><path id="shape17" transform="matrix(-1 0 0 1.04831673961596 377.834237463551 70.0870946313416)" fill="none" stroke="#006dc3" stroke-width="3.0312" stroke-linecap="square" stroke-linejoin="bevel" d="M17.0776 38.2989C16.0708 27.2047 16.931 18.8854 15.5618 10.2507C14.1694 -2.33521 1.74987 -2.17953 0.13108 4.52106C-0.910756 15.4793 4.34003 24.4949 12.9547 52.7595" sodipodi:nodetypes="cccc"/><path id="shape18" transform="matrix(-1 0 0 1.04831673961596 390.514533374196 129.374109368227)" fill="none" stroke="#006dc3" stroke-width="3.0312" stroke-linecap="square" stroke-linejoin="bevel" d="M19.0867 23.9531C18.2076 20.6875 13.5396 -5.54175 6.20254 1.06164C-9.16419 14.8917 8.46236 34.3609 11.6897 59.9955" sodipodi:nodetypes="ccc"/><path id="shape19" transform="matrix(-1 0 0 1.04831673961596 403.881149411905 184.956702520529)" fill="none" stroke="#006dc3" stroke-width="3.0312" stroke-linecap="square" stroke-linejoin="bevel" d="M22.631 22.4722C21.3021 8.26899 7.6336 -5.64978 2.10724 2.33643C-6.38525 18.8968 13.0574 26.9574 20.2967 48.1193" sodipodi:nodetypes="ccc"/><path id="shape20" transform="matrix(-1 0 0 1.04831673961596 403.512656717304 239.039034066739)" fill="none" stroke="#006dc3" stroke-width="3.0312" stroke-linecap="square" stroke-linejoin="bevel" d="M23.5055 15.6013C5.43616 -17.1958 -18.173 8.41766 22.1413 31.2625C24.0248 32.3298 34.3466 38.8785 34.6011 36.4737" sodipodi:nodetypes="ccc"/><path id="shape21" transform="matrix(-1 0 0 1.04831673961596 359.756210526318 56.0505606214295)" fill="none" stroke="#006dc3" stroke-width="3.0312" stroke-linecap="square" stroke-linejoin="bevel" d="M4.09263 17.4741C3.87412 17.7691 16.6304 -4.74566 20.4025 0.912602C30.4897 16.0433 6.82105 32.2365 0 47.6777" sodipodi:nodetypes="ccc"/><path id="shape22" transform="matrix(-1 0 0 1.04831673961596 367.911157894739 105.373668419036)" fill="none" stroke="#006dc3" stroke-width="3.0312" stroke-linecap="square" stroke-linejoin="bevel" d="M7.24547 9.93184C9.35709 6.44767 14.053 2.27573 17.7347 0.491502C21.3464 -1.25876 22.8884 2.00777 22.8884 4.91154C22.8884 18.4283 9.12767 30.0107 0 38.2256" sodipodi:nodetypes="cccc"/><path id="shape23" transform="matrix(-1 0 0 1.04831673961596 378.491368421054 148.938751978984)" fill="none" stroke="#006dc3" stroke-width="3.0312" stroke-linecap="square" stroke-linejoin="bevel" d="M6.88168 11.7565C43.9386 -24.6993 36.1336 34.6132 0 41.7692" sodipodi:nodetypes="cc"/><path id="shape24" transform="matrix(-1 0 0 1.04831673961596 382.038315789475 197.691503668085)" fill="none" stroke="#006dc3" stroke-width="3.0312" stroke-linecap="square" stroke-linejoin="bevel" d="M0.939789 10.1606C2.03309 4.88298 10.0622 -2.16955 14.4606 0.638433C28.9241 10.3283 0 37.409 0 43.8566" sodipodi:nodetypes="ccc"/><path id="shape25" transform="matrix(-1 0 0 1.04831673961596 378.824842105265 238.541765998293)" fill="none" stroke="#006dc3" stroke-width="3.0312" stroke-linecap="square" stroke-linejoin="bevel" d="M0 15.4754C0.260515 10.3954 3.30908 3.79147 8.33684 1.20576C19.9651 -4.7745 16.5221 12.977 13.0055 21.8599C13.0055 23.1267 9.83761 29.9633 9.42821 36.5661" sodipodi:nodetypes="cccc"/>
</svg>
